STARTFONT 2.1
FONT -Monotype-Century Gothic-Regular-R-Normal--36-360-75-75-P-170-iso8859-2
SIZE 36 75 75
FONTBOUNDINGBOX 50 45 -6 -8

STARTPROPERTIES 24
FOUNDRY "Monotype"
FAMILY_NAME "Century Gothic"
WEIGHT_NAME "Regular"
SLANT "R"
SETWIDTH_NAME "Normal"
ADD_STYLE_NAME ""
PIXEL_SIZE 36
POINT_SIZE 360
RESOLUTION_X 75
RESOLUTION_Y 75
SPACING "P"
AVERAGE_WIDTH 170
CHARSET_REGISTRY "iso8859"
CHARSET_ENCODING "2"
FACE_NAME "Century Gothic ISO Latin2"
_DEC_DEVICE_FONTNAMES "PS=centurygothic-lat2"
COPYRIGHT "Copyright (c) 1994 Monotype Typography Ltd."
CAP_HEIGHT 32
X_HEIGHT 23
WEIGHT 10
QUAD_WIDTH 22
DEFAULT_CHAR 160
FONT_DESCENT 8
FONT_ASCENT 37
ENDPROPERTIES

CHARS 191

STARTCHAR space
ENCODING 32
SWIDTH 277 0
DWIDTH 11 0
BBX 0 0 0 0
BITMAP
ENDCHAR

STARTCHAR exclam
ENCODING 33
SWIDTH 295 0
DWIDTH 11 0
BBX 5 28 3 0
BITMAP
70
70
70
70
70
70
70
70
70
70
70
70
70
70
70
70
70
70
70
70
70
00
00
20
78
F8
78
70
ENDCHAR

STARTCHAR quotedbl
ENCODING 34
SWIDTH 309 0
DWIDTH 12 0
BBX 10 9 1 19
BITMAP
E1C0
E1C0
E1C0
C1C0
C1C0
C1C0
C1C0
C0C0
C080
ENDCHAR

STARTCHAR numbersign
ENCODING 35
SWIDTH 720 0
DWIDTH 27 0
BBX 21 28 3 0
BITMAP
00C0C0
00C0C0
01C0C0
0180C0
018180
018180
018180
018180
018180
3FFFF8
3FFFF8
030300
030300
030300
030300
030300
060300
FFFFF0
FFFFF0
060600
060600
060600
0E0600
0C0600
0C0C00
0C0C00
0C0C00
0C0C00
ENDCHAR

STARTCHAR dollar
ENCODING 36
SWIDTH 554 0
DWIDTH 21 0
BBX 19 36 1 -6
BITMAP
006000
006000
01F000
07FC00
0FFF00
1C6780
186300
386100
386000
386000
386000
1C6000
0F6000
07E000
03F000
00FC00
007E00
006F80
0063C0
0061C0
0060E0
0060E0
0060E0
2060E0
E060E0
7061C0
3C67C0
1FFF80
0FFE00
01F800
006000
006000
006000
006000
006000
006000
ENDCHAR

STARTCHAR percent
ENCODING 37
SWIDTH 775 0
DWIDTH 29 0
BBX 27 30 1 -2
BITMAP
0F803F00
3FFFFE00
79FF8C00
E0701C00
E0701800
C0303800
C0307000
C0306000
E070E000
6071C000
79E18000
3FC38000
1F830000
00060000
000E0000
000C0000
00183F00
00387F80
0030E3C0
0071C0E0
00E180E0
00C18060
01C18060
01818060
0301C0E0
0701C0C0
0600F3C0
0C007F80
1C003E00
38000000
ENDCHAR

STARTCHAR ampersand
ENCODING 38
SWIDTH 757 0
DWIDTH 29 0
BBX 24 27 3 0
BITMAP
01E000
07F800
0FFC00
0E1E00
1C0E00
1C0E00
1C0E00
0E1C00
0F3C00
077800
03F000
01C000
03E000
0F7000
1E7000
3C3800
781C00
700E18
E0073C
E003F8
E001F0
E003E0
F00FB0
783E38
3FFC3C
1FF01E
07800F
ENDCHAR

STARTCHAR quoteright
ENCODING 39
SWIDTH 351 0
DWIDTH 13 0
BBX 3 10 5 18
BITMAP
E0
E0
E0
E0
E0
60
60
60
C0
40
ENDCHAR

STARTCHAR parenleft
ENCODING 40
SWIDTH 369 0
DWIDTH 14 0
BBX 7 37 5 -7
BITMAP
0E
1C
1C
18
38
38
38
70
70
70
70
70
60
E0
E0
E0
E0
E0
E0
E0
E0
E0
E0
E0
E0
E0
60
70
70
70
70
70
38
38
38
1C
1C
ENDCHAR

STARTCHAR parenright
ENCODING 41
SWIDTH 369 0
DWIDTH 14 0
BBX 7 37 2 -7
BITMAP
70
30
38
38
18
1C
1C
1C
1C
0C
0C
0E
0E
0E
0E
0E
0E
0E
0E
0E
0E
0E
0E
0C
0C
0C
1C
1C
1C
18
38
38
38
70
70
70
E0
ENDCHAR

STARTCHAR asterisk
ENCODING 42
SWIDTH 425 0
DWIDTH 16 0
BBX 13 13 2 15
BITMAP
0600
0600
4610
E638
F6F0
3EC0
0700
1F80
7EE0
E678
4630
0600
0600
ENDCHAR

STARTCHAR plus
ENCODING 43
SWIDTH 606 0
DWIDTH 23 0
BBX 19 19 2 4
BITMAP
00E000
00E000
00E000
00E000
00E000
00E000
00E000
00E000
FFFFE0
FFFFE0
FFFFE0
00E000
00E000
00E000
00E000
00E000
00E000
00E000
00E000
ENDCHAR

STARTCHAR comma
ENCODING 44
SWIDTH 277 0
DWIDTH 11 0
BBX 6 8 2 -3
BITMAP
18
1C
38
38
30
70
E0
60
ENDCHAR

STARTCHAR minus
ENCODING 45
SWIDTH 606 0
DWIDTH 23 0
BBX 19 3 2 12
BITMAP
FFFFE0
FFFFE0
FFFFE0
ENDCHAR

STARTCHAR period
ENCODING 46
SWIDTH 277 0
DWIDTH 11 0
BBX 5 5 3 0
BITMAP
70
F8
F8
78
70
ENDCHAR

STARTCHAR slash
ENCODING 47
SWIDTH 437 0
DWIDTH 17 0
BBX 15 32 1 -4
BITMAP
001E
001C
001C
0038
0038
0038
0070
0070
0070
00E0
00E0
00C0
01C0
01C0
0380
0380
0380
0700
0700
0700
0E00
0E00
0E00
1C00
1C00
1800
3800
3800
7000
7000
7000
E000
ENDCHAR

STARTCHAR zero
ENCODING 48
SWIDTH 554 0
DWIDTH 21 0
BBX 19 28 1 0
BITMAP
01F000
07FC00
0FFE00
1E0F00
380380
380380
7001C0
7001C0
6000C0
E000E0
E000E0
E000E0
E000E0
E000E0
E000E0
E000E0
E000E0
E000E0
E000E0
6000C0
7001C0
7001C0
700180
380380
1C0700
1F1E00
0FFC00
03F800
ENDCHAR

STARTCHAR one
ENCODING 49
SWIDTH 554 0
DWIDTH 21 0
BBX 7 28 6 0
BITMAP
7E
7E
FE
0E
0E
0E
0E
0E
0E
0E
0E
0E
0E
0E
0E
0E
0E
0E
0E
0E
0E
0E
0E
0E
0E
0E
0E
0E
ENDCHAR

STARTCHAR two
ENCODING 50
SWIDTH 554 0
DWIDTH 21 0
BBX 18 28 1 0
BITMAP
01F000
07FC00
1FFE00
3C0F00
380380
700380
7001C0
6001C0
E001C0
0001C0
0001C0
000380
000380
000700
000E00
001E00
003C00
007800
00F000
01E000
01C000
038000
070000
0E0000
1C0000
3FFFC0
7FFFC0
FFFFC0
ENDCHAR

STARTCHAR three
ENCODING 51
SWIDTH 554 0
DWIDTH 21 0
BBX 18 28 2 0
BITMAP
03E000
1FF800
3FFC00
381E00
700E00
700700
E00700
000700
000700
000E00
001E00
01F400
01F800
01FE00
000F00
000700
000380
000180
0001C0
0001C0
C001C0
E001C0
E00380
700780
780F00
3FFE00
0FFC00
03E000
ENDCHAR

STARTCHAR four
ENCODING 52
SWIDTH 554 0
DWIDTH 21 0
BBX 19 28 1 0
BITMAP
000100
000300
000300
000700
000F00
000F00
001F00
003F00
007B00
007700
00E700
01E700
01C700
038700
070700
0F0700
0E0700
1C0700
380700
3FFFE0
7FFFE0
FFFFE0
000700
000700
000700
000700
000700
000700
ENDCHAR

STARTCHAR five
ENCODING 53
SWIDTH 554 0
DWIDTH 21 0
BBX 18 28 2 0
BITMAP
07FF80
07FF80
07FF80
060000
060000
0E0000
0E0000
0E0000
0C0000
0DE000
1FFC00
1FFE00
180F00
000780
000380
0001C0
0001C0
0001C0
0001C0
0001C0
E001C0
E00380
700380
700700
3C1F00
1FFE00
0FF800
03E000
ENDCHAR

STARTCHAR six
ENCODING 54
SWIDTH 554 0
DWIDTH 21 0
BBX 17 28 2 0
BITMAP
001000
001C00
003800
007000
00F000
00E000
01C000
03C000
038000
070000
0F0000
0C0000
1FF000
3FFC00
3E1E00
780F00
700700
600380
E00380
E00380
E00380
E00380
700700
700700
3C1E00
1FFC00
0FF800
03E000
ENDCHAR

STARTCHAR seven
ENCODING 55
SWIDTH 554 0
DWIDTH 21 0
BBX 17 28 3 0
BITMAP
FFFF80
FFFF00
FFF700
000E00
000E00
001C00
001C00
003800
003800
007000
007000
00E000
00E000
01C000
018000
038000
030000
070000
060000
0E0000
1C0000
1C0000
380000
380000
700000
700000
E00000
200000
ENDCHAR

STARTCHAR eight
ENCODING 56
SWIDTH 554 0
DWIDTH 21 0
BBX 18 28 2 0
BITMAP
01F000
0FFC00
1FFE00
3C0F00
380700
700380
700380
700380
700380
380700
3C0F00
1E1E00
07F800
0FFC00
1E1F00
380780
700380
6001C0
E001C0
E001C0
E001C0
E001C0
700380
700380
3C0F00
1FFE00
0FFC00
01E000
ENDCHAR

STARTCHAR nine
ENCODING 57
SWIDTH 554 0
DWIDTH 21 0
BBX 17 28 2 0
BITMAP
03E000
0FF800
1FFC00
3C1E00
700700
700700
E00380
E00380
E00380
E00380
E00380
700700
780F00
3E3E00
1FFE00
07DC00
003800
007800
007000
00E000
01E000
01C000
038000
078000
070000
0E0000
1E0000
040000
ENDCHAR

STARTCHAR colon
ENCODING 58
SWIDTH 277 0
DWIDTH 11 0
BBX 5 21 3 0
BITMAP
70
F8
F8
78
20
00
00
00
00
00
00
00
00
00
00
00
70
F8
F8
78
70
ENDCHAR

STARTCHAR semicolon
ENCODING 59
SWIDTH 277 0
DWIDTH 11 0
BBX 6 24 2 -3
BITMAP
38
7C
7C
7C
38
00
00
00
00
00
00
00
00
00
00
00
1C
18
38
30
70
60
E0
C0
ENDCHAR

STARTCHAR less
ENCODING 60
SWIDTH 606 0
DWIDTH 23 0
BBX 19 20 2 4
BITMAP
000020
000060
0003E0
000FC0
003F00
00FC00
03F000
1FC000
7F0000
F80000
F00000
FC0000
3F0000
0FC000
03F800
007E00
001F80
0007E0
0001E0
000060
ENDCHAR

STARTCHAR equal
ENCODING 61
SWIDTH 606 0
DWIDTH 23 0
BBX 19 11 2 8
BITMAP
FFFFE0
FFFFE0
FFFFE0
000000
000000
000000
000000
000000
FFFFE0
FFFFE0
FFFFE0
ENDCHAR

STARTCHAR greater
ENCODING 62
SWIDTH 606 0
DWIDTH 23 0
BBX 19 20 2 4
BITMAP
800000
C00000
F80000
7E0000
1F8000
07E000
01F800
007F00
001FC0
0003E0
0001E0
0007E0
001F80
007E00
03F800
0FC000
3F0000
FC0000
F00000
C00000
ENDCHAR

STARTCHAR question
ENCODING 63
SWIDTH 591 0
DWIDTH 22 0
BBX 16 28 3 0
BITMAP
03E0
0FF8
3FFC
3C0E
7007
7007
6007
E007
000F
001E
007C
03F0
0FC0
1F00
1C00
380E
380E
380E
1C1C
1FFC
0FF8
01E0
0000
0080
01C0
03E0
01C0
01C0
ENDCHAR

STARTCHAR at
ENCODING 64
SWIDTH 867 0
DWIDTH 33 0
BBX 28 29 2 0
BITMAP
001FC000
00FFF800
03C01E00
07000300
0C000180
180000C0
30000060
200F9C20
603FD830
4070E830
C0E07810
C1C03810
81C03810
83803010
83803030
83803030
C3803020
C3807060
C1C070C0
41C0E180
61E1E300
30FF7E00
303C7000
180000E0
0E000180
07000700
01E01E00
007FF800
000FC000
ENDCHAR

STARTCHAR A
ENCODING 65
SWIDTH 740 0
DWIDTH 28 0
BBX 26 28 1 0
BITMAP
00040000
000C0000
000E0000
001E0000
001F0000
003F0000
003B0000
00738000
00738000
00F1C000
00E1C000
00E0E000
01C0E000
01C07000
03807000
03003800
07FFF800
07FFF800
0FFFFC00
0E001C00
1C000E00
1C000E00
38000700
38000700
78000380
70000380
700001C0
E00001C0
ENDCHAR

STARTCHAR B
ENCODING 66
SWIDTH 574 0
DWIDTH 22 0
BBX 16 28 4 0
BITMAP
FF80
FFE0
FFF0
E078
E03C
E01C
E01C
E01C
E01C
E01C
E038
E0F0
FFE0
FFF0
FFF8
E03C
E01E
E00F
E007
E007
E007
E007
E00F
E00E
E03E
FFFC
FFF0
FFC0
ENDCHAR

STARTCHAR C
ENCODING 67
SWIDTH 813 0
DWIDTH 31 0
BBX 27 28 2 0
BITMAP
001FC000
00FFF800
03FFFE00
07C01F80
0F0007C0
1E0001E0
3C0000C0
38000000
70000000
70000000
F0000000
E0000000
E0000000
E0000000
E0000000
E0000000
E0000000
60000000
70000000
70000000
38000000
3C000080
1E0001E0
0F0007C0
07C01F80
03FFFE00
00FFF800
000FC000
ENDCHAR

STARTCHAR D
ENCODING 68
SWIDTH 744 0
DWIDTH 28 0
BBX 23 28 3 0
BITMAP
FFF000
FFFE00
FFFF80
E007E0
E001F0
E00070
E00078
E0003C
E0001C
E0001C
E0000E
E0000E
E0000E
E0000E
E0000E
E0000E
E0000E
E0000E
E0001C
E0001C
E0003C
E00038
E00078
E000F0
E007E0
FFFFC0
FFFF00
FFF800
ENDCHAR

STARTCHAR E
ENCODING 69
SWIDTH 536 0
DWIDTH 20 0
BBX 16 28 3 0
BITMAP
FFFF
FFFF
FFFF
E000
E000
E000
E000
E000
E000
E000
E000
FFFF
FFFF
FFFF
E000
E000
E000
E000
E000
E000
E000
E000
E000
E000
E000
FFFF
FFFF
FFFF
ENDCHAR

STARTCHAR F
ENCODING 70
SWIDTH 485 0
DWIDTH 18 0
BBX 14 28 3 0
BITMAP
FFFC
FFFC
FFFC
E000
E000
E000
E000
E000
E000
E000
E000
FFFC
FFFC
FFFC
E000
E000
E000
E000
E000
E000
E000
E000
E000
E000
E000
E000
E000
E000
ENDCHAR

STARTCHAR G
ENCODING 71
SWIDTH 872 0
DWIDTH 33 0
BBX 29 28 2 0
BITMAP
001FE000
00FFFC00
03FFFF00
07E01F80
0F8003E0
1E0001E0
3C000040
38000000
70000000
70000000
E0000000
E0000000
E0000000
E0000000
E0007FF8
E0007FF8
E0007FF8
70000038
70000038
78000070
38000070
1C0000E0
1E0001E0
0F8003C0
07E00F80
01FFFF00
007FFC00
000FC000
ENDCHAR

STARTCHAR H
ENCODING 72
SWIDTH 683 0
DWIDTH 26 0
BBX 20 28 3 0
BITMAP
E00070
E00070
E00070
E00070
E00070
E00070
E00070
E00070
E00070
E00070
E00070
E00070
FFFFF0
FFFFF0
FFFFF0
E00070
E00070
E00070
E00070
E00070
E00070
E00070
E00070
E00070
E00070
E00070
E00070
E00070
ENDCHAR

STARTCHAR I
ENCODING 73
SWIDTH 226 0
DWIDTH 9 0
BBX 3 28 3 0
BITMAP
E0
E0
E0
E0
E0
E0
E0
E0
E0
E0
E0
E0
E0
E0
E0
E0
E0
E0
E0
E0
E0
E0
E0
E0
E0
E0
E0
E0
ENDCHAR

STARTCHAR J
ENCODING 74
SWIDTH 482 0
DWIDTH 18 0
BBX 13 28 2 0
BITMAP
0038
0038
0038
0038
0038
0038
0038
0038
0038
0038
0038
0038
0038
0038
0038
0038
0038
0038
0038
0038
0038
0038
0038
C070
F0F0
FFE0
3FC0
0F00
ENDCHAR

STARTCHAR K
ENCODING 75
SWIDTH 591 0
DWIDTH 22 0
BBX 19 28 3 0
BITMAP
E00780
E00F00
E01E00
E03C00
E07800
E0F000
E1E000
E3C000
E78000
EF0000
FE0000
FC0000
F00000
F80000
FC0000
EE0000
EF0000
E78000
E3C000
E1E000
E0F000
E07800
E03C00
E01E00
E00E00
E00700
E00380
E001E0
ENDCHAR

STARTCHAR L
ENCODING 76
SWIDTH 462 0
DWIDTH 18 0
BBX 13 28 3 0
BITMAP
E000
E000
E000
E000
E000
E000
E000
E000
E000
E000
E000
E000
E000
E000
E000
E000
E000
E000
E000
E000
E000
E000
E000
E000
E000
FFF8
FFF8
FFF8
ENDCHAR

STARTCHAR M
ENCODING 77
SWIDTH 919 0
DWIDTH 35 0
BBX 31 28 2 0
BITMAP
08000020
08000020
0C000060
1C000060
1E0000F0
1E0000F0
1F0001F0
1F0001F0
1B8003B0
1B8003B0
39C00730
39C00738
38E00E38
38E00E38
38600C38
30701C18
30301818
30383818
7018301C
701C701C
700C601C
700EE01C
6006C01C
6007C00C
6003C00C
E003800E
E001800E
E001000E
ENDCHAR

STARTCHAR N
ENCODING 78
SWIDTH 740 0
DWIDTH 28 0
BBX 22 28 3 0
BITMAP
80001C
C0001C
E0001C
F0001C
F8001C
F8001C
FC001C
EE001C
EF001C
E7801C
E3C01C
E1E01C
E0E01C
E0701C
E0381C
E03C1C
E01E1C
E00F1C
E0079C
E003DC
E001DC
E000FC
E0007C
E0007C
E0003C
E0001C
E0000C
E00004
ENDCHAR

STARTCHAR O
ENCODING 79
SWIDTH 869 0
DWIDTH 33 0
BBX 29 28 2 0
BITMAP
001FC000
00FFF800
03FFFE00
07C01F00
0F000780
1E0003C0
3C0001E0
380000E0
70000070
70000070
70000038
E0000038
E0000038
E0000038
E0000038
E0000038
E0000038
60000038
70000070
70000070
380000E0
3C0001E0
1E0003C0
0F000780
07C01F00
03FFFE00
00FFF800
000FC000
ENDCHAR

STARTCHAR P
ENCODING 80
SWIDTH 592 0
DWIDTH 22 0
BBX 17 28 3 0
BITMAP
FFE000
FFFC00
FFFE00
E00F00
E00700
E00380
E00380
E00380
E00380
E00380
E00700
E00F00
FFFE00
FFFC00
FFE000
E00000
E00000
E00000
E00000
E00000
E00000
E00000
E00000
E00000
E00000
E00000
E00000
E00000
ENDCHAR

STARTCHAR Q
ENCODING 81
SWIDTH 871 0
DWIDTH 33 0
BBX 29 29 2 -1
BITMAP
001FC000
00FFF800
03FFFE00
07C01F00
0F000780
1E0003C0
3C0001E0
380000E0
70000070
70000070
70000038
E0000038
E0000038
E0000038
E0000038
E0000038
E003C038
7001E038
7000E070
70007070
380038E0
3C001DE0
1E001FC0
0F000F80
07C01F00
03FFFF80
00FFF9C0
000FC1E0
000000F0
ENDCHAR

STARTCHAR R
ENCODING 82
SWIDTH 607 0
DWIDTH 23 0
BBX 17 28 3 0
BITMAP
FFE000
FFFC00
FFFE00
E00F00
E00700
E00380
E00380
E00380
E00380
E00380
E00700
E00F00
FFFE00
FFFC00
FFF000
E70000
E38000
E3C000
E1C000
E0E000
E0F000
E07800
E03800
E01C00
E01E00
E00F00
E00700
E00380
ENDCHAR

STARTCHAR S
ENCODING 83
SWIDTH 498 0
DWIDTH 19 0
BBX 16 28 0 0
BITMAP
03E0
0FF8
1FFC
1C1F
380E
3804
3800
3800
1C00
1E00
0F00
0780
03C0
01F0
00F8
007C
001E
000E
000F
0007
0007
E007
7007
780E
3C1E
1FFC
0FF8
03E0
ENDCHAR

STARTCHAR T
ENCODING 84
SWIDTH 426 0
DWIDTH 16 0
BBX 15 28 1 0
BITMAP
FFFE
FFFE
FFFE
0380
0380
0380
0380
0380
0380
0380
0380
0380
0380
0380
0380
0380
0380
0380
0380
0380
0380
0380
0380
0380
0380
0380
0380
0380
ENDCHAR

STARTCHAR U
ENCODING 85
SWIDTH 655 0
DWIDTH 25 0
BBX 18 28 3 0
BITMAP
E001C0
E001C0
E001C0
E001C0
E001C0
E001C0
E001C0
E001C0
E001C0
E001C0
E001C0
E001C0
E001C0
E001C0
E001C0
E001C0
E001C0
E001C0
E001C0
E001C0
E001C0
700180
700380
780780
3C0F00
1FFE00
0FFC00
01E000
ENDCHAR

STARTCHAR V
ENCODING 86
SWIDTH 702 0
DWIDTH 27 0
BBX 24 28 1 0
BITMAP
E00007
700007
70000E
38000E
38000E
1C001C
1C001C
1C0038
0E0038
0E0070
070070
070070
0700E0
0380E0
0381C0
01C1C0
01C380
00E380
00E380
00E700
007700
007600
003E00
003C00
001C00
001C00
001800
000800
ENDCHAR

STARTCHAR W
ENCODING 87
SWIDTH 960 0
DWIDTH 36 0
BBX 33 28 2 0
BITMAP
E000800380
E001800300
E001C00700
7001C00700
7003C00600
7003E00E00
3007E00E00
3807600E00
3807700C00
380E701C00
1C0E381C00
1C0C381C00
1C1C383800
0C1C1C3800
0E381C3800
0E380E3000
0E300E7000
06700E7000
0770077000
0760076000
07E007E000
03E003E000
03C003C000
03C001C000
018001C000
018001C000
0180008000
0100008000
ENDCHAR

STARTCHAR X
ENCODING 88
SWIDTH 609 0
DWIDTH 23 0
BBX 21 28 1 0
BITMAP
700070
3800F0
3C00E0
1C01C0
0E01C0
0E0380
070780
078700
038E00
01DE00
01DC00
00FC00
00F800
007000
00F800
00F800
01DC00
01DE00
038E00
078700
070700
0E0380
0E03C0
1C01C0
3C00E0
3800E0
700070
F00078
ENDCHAR

STARTCHAR Y
ENCODING 89
SWIDTH 592 0
DWIDTH 22 0
BBX 21 28 1 0
BITMAP
F00078
700070
3800E0
3C01E0
1C01C0
0E0380
0E0380
070700
078F00
038E00
01DC00
01EC00
00F800
00F800
007000
007000
007000
007000
007000
007000
007000
007000
007000
007000
007000
007000
007000
007000
ENDCHAR

STARTCHAR Z
ENCODING 90
SWIDTH 480 0
DWIDTH 18 0
BBX 16 28 1 0
BITMAP
7FFF
7FFE
7FEE
001C
001C
0038
0038
0070
0070
00E0
00E0
00C0
01C0
01C0
0380
0380
0700
0700
0E00
0E00
1C00
1C00
3800
3800
3000
7FFE
7FFE
FFFE
ENDCHAR

STARTCHAR bracketleft
ENCODING 91
SWIDTH 351 0
DWIDTH 13 0
BBX 6 35 5 -7
BITMAP
FC
FC
FC
E0
E0
E0
E0
E0
E0
E0
E0
E0
E0
E0
E0
E0
E0
E0
E0
E0
E0
E0
E0
E0
E0
E0
E0
E0
E0
E0
E0
E0
FC
FC
FC
ENDCHAR

STARTCHAR backslash
ENCODING 92
SWIDTH 605 0
DWIDTH 23 0
BBX 21 32 1 -4
BITMAP
E00000
700000
300000
380000
1C0000
1C0000
0E0000
0E0000
070000
070000
038000
018000
01C000
00E000
00E000
007000
007000
003800
003800
001C00
000C00
000E00
000700
000700
000380
000380
0001C0
0000C0
0000E0
000060
000070
000038
ENDCHAR

STARTCHAR bracketright
ENCODING 93
SWIDTH 351 0
DWIDTH 13 0
BBX 6 35 2 -7
BITMAP
FC
FC
FC
1C
1C
1C
1C
1C
1C
1C
1C
1C
1C
1C
1C
1C
1C
1C
1C
1C
1C
1C
1C
1C
1C
1C
1C
1C
1C
1C
1C
1C
FC
FC
FC
ENDCHAR

STARTCHAR asciicircum
ENCODING 94
SWIDTH 672 0
DWIDTH 26 0
BBX 21 21 2 7
BITMAP
007000
007800
007800
00E800
00DC00
01CC00
018E00
038600
030700
070300
060380
0E0180
0C01C0
0C00C0
1800E0
180060
380060
300070
700030
600038
E00018
ENDCHAR

STARTCHAR underscore
ENCODING 95
SWIDTH 500 0
DWIDTH 19 0
BBX 19 2 0 -5
BITMAP
FFFFE0
FFFFE0
ENDCHAR

STARTCHAR quoteleft
ENCODING 96
SWIDTH 351 0
DWIDTH 13 0
BBX 3 10 5 18
BITMAP
40
60
C0
C0
C0
E0
E0
E0
E0
E0
ENDCHAR

STARTCHAR a
ENCODING 97
SWIDTH 683 0
DWIDTH 26 0
BBX 21 21 2 0
BITMAP
00F818
03FE18
0FFF98
1E03D8
3C00F8
380078
700038
700038
E00018
E00018
E00018
E00018
E00018
600038
700038
700078
380078
1E01D8
0F8798
07FF18
01FC18
ENDCHAR

STARTCHAR b
ENCODING 98
SWIDTH 682 0
DWIDTH 26 0
BBX 21 28 3 0
BITMAP
E00000
E00000
E00000
E00000
E00000
E00000
E00000
E1FC00
E7FF00
EF0780
EC01C0
F800E0
F00070
E00070
E00030
E00038
E00038
E00038
E00038
E00038
E00030
F00070
F800E0
FC01E0
EE03C0
E7FF80
E3FE00
E0F800
ENDCHAR

STARTCHAR c
ENCODING 99
SWIDTH 647 0
DWIDTH 25 0
BBX 21 21 2 0
BITMAP
01FF00
07FFC0
0F83E0
1E00F0
380038
780020
700000
600000
E00000
E00000
E00000
E00000
E00000
600000
700000
780020
380078
1E00F0
0F83E0
07FFC0
01FF00
ENDCHAR

STARTCHAR d
ENCODING 100
SWIDTH 685 0
DWIDTH 26 0
BBX 21 28 2 0
BITMAP
000038
000038
000038
000038
000038
000038
000038
00F838
07FE38
0FFFB8
1E03D8
3C00F8
380078
700078
600038
E00038
E00038
E00038
E00038
E00038
600038
700038
700078
3800F8
1C01D8
0F87B8
07FF38
01FC38
ENDCHAR

STARTCHAR e
ENCODING 101
SWIDTH 650 0
DWIDTH 25 0
BBX 21 21 2 0
BITMAP
00F800
07FF00
0FFF80
1E03C0
3C00E0
380070
700070
700030
E00038
FFFFF8
FFFFF8
E00000
E00000
600000
700020
700070
3800F0
1C01E0
0F07C0
07FF80
01FE00
ENDCHAR

STARTCHAR f
ENCODING 102
SWIDTH 314 0
DWIDTH 12 0
BBX 9 29 2 0
BITMAP
0F80
1F80
3C80
3800
3800
3800
3800
3800
FF80
FF80
3800
3800
3800
3800
3800
3800
3800
3800
3800
3800
3800
3800
3800
3800
3800
3800
3800
3800
3800
ENDCHAR

STARTCHAR g
ENCODING 103
SWIDTH 673 0
DWIDTH 26 0
BBX 21 28 2 -7
BITMAP
00F818
03FF18
0FFF98
1F03D8
3C00F8
380078
700038
700038
E00018
E00018
E00018
E00018
E00018
600038
700038
700078
380078
1C01D8
0F8798
07FF18
01FC18
000038
E00038
700070
3800F0
1F03E0
0FFF80
03FE00
ENDCHAR

STARTCHAR h
ENCODING 104
SWIDTH 610 0
DWIDTH 23 0
BBX 18 28 3 0
BITMAP
E00000
E00000
E00000
E00000
E00000
E00000
E00000
E1F800
E7FE00
EF0F00
EC0780
F80380
F00180
F001C0
E001C0
E001C0
E001C0
E001C0
E001C0
E001C0
E001C0
E001C0
E001C0
E001C0
E001C0
E001C0
E001C0
E001C0
ENDCHAR

STARTCHAR i
ENCODING 105
SWIDTH 200 0
DWIDTH 8 0
BBX 4 29 2 0
BITMAP
F0
F0
F0
70
00
00
00
00
70
70
70
70
70
70
70
70
70
70
70
70
70
70
70
70
70
70
70
70
70
ENDCHAR

STARTCHAR j
ENCODING 106
SWIDTH 203 0
DWIDTH 8 0
BBX 7 36 -1 -7
BITMAP
1E
1E
1E
0E
00
00
00
00
0E
0E
0E
0E
0E
0E
0E
0E
0E
0E
0E
0E
0E
0E
0E
0E
0E
0E
0E
0E
0E
0E
0E
0E
0E
9E
FC
FC
ENDCHAR

STARTCHAR k
ENCODING 107
SWIDTH 502 0
DWIDTH 19 0
BBX 17 28 3 0
BITMAP
E00000
E00000
E00000
E00000
E00000
E00000
E00000
E00F00
E01C00
E07800
E0F000
E1E000
E3C000
E78000
EF0000
FE0000
F80000
F80000
FE0000
EF0000
E78000
E3C000
E1E000
E0F000
E07800
E03C00
E01E00
E00780
ENDCHAR

STARTCHAR l
ENCODING 108
SWIDTH 200 0
DWIDTH 8 0
BBX 3 28 2 0
BITMAP
E0
E0
E0
E0
E0
E0
E0
E0
E0
E0
E0
E0
E0
E0
E0
E0
E0
E0
E0
E0
E0
E0
E0
E0
E0
E0
E0
E0
ENDCHAR

STARTCHAR m
ENCODING 109
SWIDTH 938 0
DWIDTH 36 0
BBX 31 21 2 0
BITMAP
E0F003C0
E3FC0FF0
EFFE3FF8
EC0F703C
F807601C
F003C00C
F003C00E
E003800E
E003800E
E003800E
E003800E
E003800E
E003800E
E003800E
E003800E
E003800E
E003800E
E003800E
E003800E
E003800E
E003800E
ENDCHAR

STARTCHAR n
ENCODING 110
SWIDTH 610 0
DWIDTH 23 0
BBX 18 21 3 0
BITMAP
E1FC00
E7FE00
EF0F00
EC0780
F80380
F00180
F001C0
E001C0
E001C0
E001C0
E001C0
E001C0
E001C0
E001C0
E001C0
E001C0
E001C0
E001C0
E001C0
E001C0
E001C0
ENDCHAR

STARTCHAR o
ENCODING 111
SWIDTH 655 0
DWIDTH 25 0
BBX 21 21 2 0
BITMAP
00F800
07FF00
0FFF80
1E03C0
3C01E0
3800E0
700070
700070
E00038
E00038
E00038
E00038
E00038
600030
700070
700070
3800E0
1C01C0
0F0F80
07FF00
01FC00
ENDCHAR

STARTCHAR p
ENCODING 112
SWIDTH 682 0
DWIDTH 26 0
BBX 21 28 3 -7
BITMAP
E0F800
E3FF00
EFFF80
EE03C0
F801E0
F000F0
F00070
E00030
E00038
E00038
E00038
E00038
E00038
E00030
E00070
F00070
F800E0
EC01C0
EF0F80
E7FF00
E1FC00
E00000
E00000
E00000
E00000
E00000
E00000
E00000
ENDCHAR

STARTCHAR q
ENCODING 113
SWIDTH 682 0
DWIDTH 26 0
BBX 21 28 2 -7
BITMAP
00F838
07FE38
0FFFB8
1E03D8
3C00F8
380078
700078
600038
E00038
E00038
E00038
E00038
E00038
600038
700038
700078
3800F8
1C01D8
0F87B8
07FF38
01FC38
000038
000038
000038
000038
000038
000038
000038
ENDCHAR

STARTCHAR r
ENCODING 114
SWIDTH 301 0
DWIDTH 11 0
BBX 10 21 2 0
BITMAP
E3C0
E7C0
EF80
EC00
F800
F000
F000
E000
E000
E000
E000
E000
E000
E000
E000
E000
E000
E000
E000
E000
E000
ENDCHAR

STARTCHAR s
ENCODING 115
SWIDTH 388 0
DWIDTH 15 0
BBX 12 21 1 0
BITMAP
1F80
3FE0
78F0
7020
6000
6000
7000
7800
3C00
1F00
07C0
03E0
00F0
0070
0030
0030
4070
6070
F1E0
7FE0
1F80
ENDCHAR

STARTCHAR t
ENCODING 116
SWIDTH 339 0
DWIDTH 13 0
BBX 10 29 2 0
BITMAP
1C00
1C00
1C00
1C00
1C00
1C00
1C00
1C00
FFC0
FFC0
1C00
1C00
1C00
1C00
1C00
1C00
1C00
1C00
1C00
1C00
1C00
1C00
1C00
1C00
1C00
1C00
1C00
1C00
1C00
ENDCHAR

STARTCHAR u
ENCODING 117
SWIDTH 608 0
DWIDTH 23 0
BBX 18 21 2 0
BITMAP
E001C0
E001C0
E001C0
E001C0
E001C0
E001C0
E001C0
E001C0
E001C0
E001C0
E001C0
E001C0
E001C0
E001C0
600180
700380
780780
3C0F00
1FFE00
0FFC00
01E000
ENDCHAR

STARTCHAR v
ENCODING 118
SWIDTH 554 0
DWIDTH 21 0
BBX 19 21 1 0
BITMAP
E000E0
6000C0
7001C0
3001C0
380380
380380
1C0700
1C0700
0E0E00
0E0E00
060C00
071C00
031800
03B800
03B800
01F000
01F000
00E000
00E000
004000
004000
ENDCHAR

STARTCHAR w
ENCODING 119
SWIDTH 831 0
DWIDTH 32 0
BBX 31 21 0 0
BITMAP
E0010006
6001800E
7003800C
3003801C
3803C01C
3807C038
1C076038
1C0EE030
0C0E7070
0E1C7060
0E1C30E0
071838E0
073818C0
03301DC0
03B01D80
01F00F80
01E00F00
01E00700
00C00700
00C00200
00400200
ENDCHAR

STARTCHAR x
ENCODING 120
SWIDTH 480 0
DWIDTH 18 0
BBX 18 21 0 0
BITMAP
7003C0
380780
380700
1C0E00
0E1C00
0F1C00
073800
03B000
03F000
01E000
01E000
03F000
03B000
073800
0E1C00
0E1E00
1C0E00
380700
380380
700380
E001C0
ENDCHAR

STARTCHAR y
ENCODING 121
SWIDTH 536 0
DWIDTH 20 0
BBX 19 28 1 -7
BITMAP
E000E0
E000C0
7001C0
700180
300380
380380
180700
1C0700
1C0600
0E0E00
0E0C00
071C00
071C00
033800
03B800
01B000
01F000
01E000
00E000
00E000
01C000
01C000
038000
038000
030000
070000
060000
0E0000
ENDCHAR

STARTCHAR z
ENCODING 122
SWIDTH 425 0
DWIDTH 16 0
BBX 16 21 0 0
BITMAP
7FFF
7FEE
001C
001C
0038
0038
0070
00E0
00E0
01C0
01C0
0380
0700
0700
0E00
0E00
1C00
3800
3800
7FFF
FFFF
ENDCHAR

STARTCHAR braceleft
ENCODING 123
SWIDTH 351 0
DWIDTH 13 0
BBX 11 36 1 -8
BITMAP
01E0
07E0
07E0
0F00
0E00
0E00
0E00
0E00
0E00
0E00
0E00
0E00
0E00
0E00
1E00
1C00
F800
E000
F000
F800
1C00
1E00
0E00
0E00
0E00
0E00
0E00
0E00
0E00
0E00
0E00
0E00
0F00
07E0
07E0
01E0
ENDCHAR

STARTCHAR bar
ENCODING 124
SWIDTH 672 0
DWIDTH 26 0
BBX 3 35 11 -7
BITMAP
E0
E0
E0
E0
E0
E0
E0
E0
E0
E0
E0
E0
E0
E0
E0
E0
E0
E0
E0
E0
E0
E0
E0
E0
E0
E0
E0
E0
E0
E0
E0
E0
E0
E0
E0
ENDCHAR

STARTCHAR braceright
ENCODING 125
SWIDTH 351 0
DWIDTH 13 0
BBX 11 36 1 -8
BITMAP
F000
FC00
FC00
1E00
0E00
0E00
0E00
0E00
0E00
0E00
0E00
0E00
0E00
0E00
0700
0700
03E0
00E0
01E0
03E0
0700
0700
0E00
0E00
0E00
0E00
0E00
0E00
0E00
0E00
0E00
0E00
1E00
FC00
FC00
F000
ENDCHAR

STARTCHAR asciitilde
ENCODING 126
SWIDTH 606 0
DWIDTH 23 0
BBX 19 6 2 11
BITMAP
1E0000
7FC020
FFF0E0
E1FFE0
803FC0
000F00
ENDCHAR

STARTCHAR space
ENCODING 160
SWIDTH 277 0
DWIDTH 12 0
BBX 0 0 0 0
BITMAP
ENDCHAR

STARTCHAR Aogonek
ENCODING 161
SWIDTH 740 0
DWIDTH 28 0
BBX 28 35 1 -7
BITMAP
00040000
000C0000
000E0000
001E0000
001F0000
003F0000
003B0000
00738000
00738000
00F1C000
00E1C000
00E0E000
01C0E000
01C07000
03807000
03003800
07FFF800
07FFFC00
0FFFFC00
0E001C00
1C000E00
1C000E00
3C000700
38000700
78000380
70000380
700001C0
E00000C0
000001C0
00000180
00000300
00000300
00000380
000001F0
000000F0
ENDCHAR

STARTCHAR breve
ENCODING 162
SWIDTH 453 0
DWIDTH 17 0
BBX 13 4 2 24
BITMAP
E038
7078
3FF0
0FC0
ENDCHAR

STARTCHAR Lslash
ENCODING 163
SWIDTH 517 0
DWIDTH 20 0
BBX 17 28 1 0
BITMAP
0E0000
0E0000
0E0000
0E0000
0E0000
0E0000
0E0000
0E1000
0E1000
0E7000
0EF000
0EE000
0FC000
0F8000
0E0000
3E0000
7E0000
F60000
EE0000
CE0000
0E0000
0E0000
0E0000
0E0000
0E0000
0FFF80
0FFF80
0FFF80
ENDCHAR

STARTCHAR currency
ENCODING 164
SWIDTH 554 0
DWIDTH 21 0
BBX 20 19 1 4
BITMAP
40F020
E7FE70
7FFFE0
3E07C0
3801C0
7000E0
7000E0
E00070
E00070
E00070
E00070
E00070
7000E0
7000E0
3801C0
3E07C0
7FFFE0
E7FE70
40F020
ENDCHAR

STARTCHAR Lcaron
ENCODING 165
SWIDTH 462 0
DWIDTH 18 0
BBX 14 28 3 0
BITMAP
E380
E380
E380
E380
E380
E180
E180
E180
E300
E300
E000
E000
E000
E000
E000
E000
E000
E000
E000
E000
E000
E000
E000
E000
E000
FFFC
FFFC
FFFC
ENDCHAR

STARTCHAR Sacute
ENCODING 166
SWIDTH 498 0
DWIDTH 19 0
BBX 16 35 0 0
BITMAP
0078
00F0
00E0
01C0
0380
0300
0000
03E0
0FF8
1FFC
1C1F
380E
3804
3800
3800
1C00
1E00
0F00
0780
03C0
01F0
00F8
003C
001E
000E
000F
0007
0007
E007
7007
780E
3C1E
1FFC
0FF8
03E0
ENDCHAR

STARTCHAR section
ENCODING 167
SWIDTH 615 0
DWIDTH 23 0
BBX 16 36 3 -7
BITMAP
03E0
1FF8
3FFC
381C
700E
700E
7000
3000
3800
1C00
0E00
0780
1FE0
38F0
707C
E01E
E00E
E007
E007
7007
7807
3C0E
0F3C
07F8
01E0
00F0
0038
001C
000C
000E
000E
700E
781E
3C3C
1FF8
07E0
ENDCHAR

STARTCHAR dieresis
ENCODING 168
SWIDTH 369 0
DWIDTH 14 0
BBX 12 4 1 24
BITMAP
F0F0
F0F0
F0F0
70F0
ENDCHAR

STARTCHAR Scaron
ENCODING 169
SWIDTH 498 0
DWIDTH 19 0
BBX 16 34 0 0
BITMAP
3C1E
1E78
0770
03E0
01C0
0000
03E0
0FF8
1FFC
1C1F
380E
3804
3800
3800
1C00
1E00
0F00
0780
03C0
01F0
00F8
003C
001E
000E
000F
0007
0007
E007
7007
780E
3C1E
1FFC
0FF8
03E0
ENDCHAR

STARTCHAR Scommaaccent
ENCODING 170
SWIDTH 498 0
DWIDTH 19 0
BBX 16 35 0 -7
BITMAP
03E0
0FF8
1FFC
1C1F
380E
3804
3800
3800
1C00
1E00
0F00
0780
03C0
01F0
00F8
007C
001E
000E
000F
0007
0007
E007
7007
780E
3C1E
1FFC
0FF8
03C0
0000
01C0
01C0
01C0
0040
00C0
0040
ENDCHAR

STARTCHAR Tcaron
ENCODING 171
SWIDTH 426 0
DWIDTH 16 0
BBX 15 35 1 0
BITMAP
703C
3C78
1EF0
0FC0
0380
0000
0000
FFFE
FFFE
FFFE
0380
0380
0380
0380
0380
0380
0380
0380
0380
0380
0380
0380
0380
0380
0380
0380
0380
0380
0380
0380
0380
0380
0380
0380
0380
ENDCHAR

STARTCHAR Zacute
ENCODING 172
SWIDTH 480 0
DWIDTH 18 0
BBX 16 36 1 0
BITMAP
0078
00F0
01E0
01C0
0380
0700
0000
0000
7FFF
7FFE
7FEE
001C
001C
0038
0038
0070
0070
00E0
00E0
00C0
01C0
01C0
0380
0380
0700
0700
0E00
0E00
1C00
1C00
3800
3800
3000
7FFE
7FFE
FFFE
ENDCHAR

STARTCHAR hyphen
ENCODING 173
SWIDTH 332 0
DWIDTH 13 0
BBX 10 2 1 9
BITMAP
FFC0
FFC0
ENDCHAR

STARTCHAR Zcaron
ENCODING 174
SWIDTH 480 0
DWIDTH 18 0
BBX 16 35 1 0
BITMAP
781E
1C38
0EF0
07E0
03C0
0000
0000
7FFF
7FFE
7FEE
001C
001C
0038
0038
0070
0070
00E0
00E0
00C0
01C0
01C0
0380
0380
0700
0700
0E00
0E00
1C00
1C00
3800
3800
3000
7FFE
7FFE
FFFE
ENDCHAR

STARTCHAR Zdotaccent
ENCODING 175
SWIDTH 480 0
DWIDTH 18 0
BBX 16 34 1 0
BITMAP
03C0
03C0
03C0
0180
0000
0000
7FFF
7FFE
7FEE
001C
001C
0038
0038
0030
0070
0070
00E0
00E0
01C0
01C0
0380
0380
0700
0700
0E00
0E00
0E00
1C00
1C00
3800
3000
7FFE
7FFE
FFFE
ENDCHAR

STARTCHAR degree
ENCODING 176
SWIDTH 400 0
DWIDTH 15 0
BBX 13 13 1 15
BITMAP
0F80
3FE0
7870
6030
E038
C018
C018
C018
E038
6030
78F0
3FE0
0F80
ENDCHAR

STARTCHAR aogonek
ENCODING 177
SWIDTH 683 0
DWIDTH 26 0
BBX 23 28 2 -7
BITMAP
00F818
03FF18
0FFF98
1E03D8
3C00F8
380078
700038
700038
E00018
E00018
E00018
E00018
E00018
600038
700038
700078
380078
1E01D8
0F87D8
07FF18
01FC18
000030
000030
000060
000060
000070
00003E
00001E
ENDCHAR

STARTCHAR ogonek
ENCODING 178
SWIDTH 302 0
DWIDTH 11 0
BBX 6 7 4 -7
BITMAP
70
E0
C0
C0
E0
7C
3C
ENDCHAR

STARTCHAR lslash
ENCODING 179
SWIDTH 300 0
DWIDTH 11 0
BBX 10 28 1 0
BITMAP
1C00
1C00
1C00
1C00
1C00
1C00
1C00
1C00
1CC0
1DC0
1F80
1E00
3C00
FC00
EC00
9C00
1C00
1C00
1C00
1C00
1C00
1C00
1C00
1C00
1C00
1C00
1C00
1C00
ENDCHAR

STARTCHAR acute
ENCODING 180
SWIDTH 375 0
DWIDTH 14 0
BBX 8 6 4 24
BITMAP
0F
0E
1C
38
70
E0
ENDCHAR

STARTCHAR lcaron
ENCODING 181
SWIDTH 206 0
DWIDTH 8 0
BBX 7 28 2 0
BITMAP
EE
EE
EE
EA
E6
E6
E4
EC
E0
E0
E0
E0
E0
E0
E0
E0
E0
E0
E0
E0
E0
E0
E0
E0
E0
E0
E0
E0
ENDCHAR

STARTCHAR sacute
ENCODING 182
SWIDTH 388 0
DWIDTH 15 0
BBX 12 30 1 0
BITMAP
01F0
03C0
0780
0700
0E00
1C00
0000
0000
0000
1F80
3FE0
78F0
7020
6000
6000
7000
7800
3C00
1F00
07C0
03E0
00F0
0070
0030
0030
4070
6070
F1E0
7FE0
1F80
ENDCHAR

STARTCHAR caron
ENCODING 183
SWIDTH 502 0
DWIDTH 19 0
BBX 13 5 3 24
BITMAP
E038
70F0
3DE0
1FC0
0F80
ENDCHAR

STARTCHAR commaaccent
ENCODING 184
SWIDTH 333 0
DWIDTH 13 0
BBX 3 6 5 -8
BITMAP
E0
E0
E0
20
60
20
ENDCHAR

STARTCHAR scaron
ENCODING 185
SWIDTH 388 0
DWIDTH 15 0
BBX 14 29 0 0
BITMAP
F03C
3CF0
1EE0
0FC0
0300
0000
0000
0000
0FC0
1FF0
3C78
3810
3000
3000
3800
3C00
1E00
0F80
07E0
01F0
0078
0038
0018
0018
2038
3038
78F0
3FE0
0FC0
ENDCHAR

STARTCHAR scommaaccent
ENCODING 186
SWIDTH 388 0
DWIDTH 15 0
BBX 12 29 1 -8
BITMAP
0FC0
3FE0
38F0
7020
6000
6000
7000
7800
3C00
1F00
07C0
03E0
00F0
0070
0030
0030
4070
6070
F1E0
7FE0
1F80
0000
0000
0700
0700
0700
0100
0300
0100
ENDCHAR

STARTCHAR tcaron
ENCODING 187
SWIDTH 380 0
DWIDTH 14 0
BBX 10 28 3 0
BITMAP
1DC0
1DC0
1DC0
1CC0
1C80
1C80
1C00
FF80
FF80
1C00
1C00
1C00
1C00
1C00
1C00
1C00
1C00
1C00
1C00
1C00
1C00
1C00
1C00
1C00
1C00
1C00
1C00
1C00
ENDCHAR

STARTCHAR zacute
ENCODING 188
SWIDTH 425 0
DWIDTH 16 0
BBX 16 31 0 0
BITMAP
0078
0070
00E0
01C0
0380
0700
0000
0000
0000
0000
7FFF
7FEE
001C
001C
0038
0038
0070
00E0
00E0
01C0
01C0
0380
0700
0700
0E00
0E00
1C00
3800
3800
7FFF
FFFF
ENDCHAR

STARTCHAR hungarumlaut
ENCODING 189
SWIDTH 552 0
DWIDTH 21 0
BBX 14 6 5 24
BITMAP
0F7C
1E70
3CE0
79E0
71C0
E380
ENDCHAR

STARTCHAR zcaron
ENCODING 190
SWIDTH 425 0
DWIDTH 16 0
BBX 16 30 0 0
BITMAP
781E
1C3C
0E78
07E0
03C0
0000
0000
0000
0000
7FFF
7FEE
001C
001C
0038
0038
0070
00E0
00E0
01C0
01C0
0380
0700
0700
0E00
0E00
1C00
3800
3800
7FFF
FFFF
ENDCHAR

STARTCHAR zdotaccent
ENCODING 191
SWIDTH 425 0
DWIDTH 16 0
BBX 16 29 0 0
BITMAP
03C0
03C0
03C0
03C0
0000
0000
0000
0000
7FFF
7FEE
001C
001C
0038
0078
0070
00E0
00E0
01C0
03C0
0380
0700
0700
0E00
1C00
1C00
3800
3800
7FFF
FFFF
ENDCHAR

STARTCHAR Racute
ENCODING 192
SWIDTH 607 0
DWIDTH 23 0
BBX 17 36 3 0
BITMAP
003C00
007800
00F000
00E000
01C000
038000
000000
000000
FFE000
FFFC00
FFFE00
E00F00
E00700
E00380
E00380
E00380
E00380
E00380
E00700
E00F00
FFFE00
FFFC00
FFF000
E70000
E38000
E3C000
E1C000
E0E000
E0F000
E07800
E03800
E01C00
E01E00
E00F00
E00700
E00380
ENDCHAR

STARTCHAR Aacute
ENCODING 193
SWIDTH 740 0
DWIDTH 28 0
BBX 26 36 1 0
BITMAP
0003C000
00078000
00070000
000E0000
001C0000
00380000
00000000
00000000
00040000
000C0000
000E0000
001E0000
001F0000
003F0000
003B0000
00738000
00738000
00F1C000
00E1C000
00E0E000
01C0E000
01C07000
03807000
03003800
07FFF800
07FFF800
0FFFFC00
0E001C00
1C000E00
1C000E00
38000700
38000700
78000380
70000380
700001C0
E00001C0
ENDCHAR

STARTCHAR Acircumflex
ENCODING 194
SWIDTH 740 0
DWIDTH 28 0
BBX 26 35 1 0
BITMAP
001E0000
003F0000
007B8000
00F1C000
03C0F000
00000000
00000000
00040000
000C0000
000E0000
001E0000
001F0000
003F0000
003B0000
00738000
00738000
00F1C000
00E1C000
00E0E000
01C0E000
01C07000
03807000
03003800
07FFF800
07FFF800
0FFFFC00
0E001C00
1C000E00
1C000E00
38000700
38000700
78000380
70000380
700001C0
E00001C0
ENDCHAR

STARTCHAR Abreve
ENCODING 195
SWIDTH 740 0
DWIDTH 28 0
BBX 26 34 1 0
BITMAP
01807000
01E0E000
00FFC000
003F0000
00000000
00000000
00040000
000C0000
000E0000
001E0000
001F0000
003F0000
003B0000
00738000
00738000
00F1C000
00E1C000
00E0E000
01C0E000
01C07000
03807000
03003800
07FFF800
07FFF800
0FFFFC00
0E001C00
1C000E00
1C000E00
38000700
38000700
78000380
70000380
700001C0
E00001C0
ENDCHAR

STARTCHAR Adieresis
ENCODING 196
SWIDTH 740 0
DWIDTH 28 0
BBX 26 34 1 0
BITMAP
01E1E000
01E1E000
01E1E000
00E0C000
00000000
00000000
00040000
000C0000
000E0000
001E0000
001F0000
003F0000
003B0000
00738000
00738000
00E1C000
00E1C000
01C0E000
01C0E000
03807000
03807000
07003800
07FFF800
07FFFC00
0FFFFC00
0E001E00
1C000E00
1C000E00
38000700
38000700
70000380
70000380
E00001C0
E00001C0
ENDCHAR

STARTCHAR Lacute
ENCODING 197
SWIDTH 462 0
DWIDTH 18 0
BBX 13 36 3 0
BITMAP
00F0
01E0
03C0
0380
0700
0E00
0000
0000
E000
E000
E000
E000
E000
E000
E000
E000
E000
E000
E000
E000
E000
E000
E000
E000
E000
E000
E000
E000
E000
E000
E000
E000
E000
FFF8
FFF8
FFF8
ENDCHAR

STARTCHAR Cacute
ENCODING 198
SWIDTH 813 0
DWIDTH 31 0
BBX 27 35 2 0
BITMAP
0003E000
00038000
00070000
000E0000
001C0000
00180000
00000000
001FC000
00FFF800
03FFFE00
07C01F80
0F0007C0
1E0001E0
3C0000C0
38000000
70000000
70000000
F0000000
E0000000
E0000000
E0000000
E0000000
E0000000
E0000000
60000000
70000000
70000000
38000000
3C000080
1E0001E0
0F0007C0
07C01F80
03FFFE00
00FFF800
000FC000
ENDCHAR

STARTCHAR Ccedilla
ENCODING 199
SWIDTH 813 0
DWIDTH 31 0
BBX 27 34 2 -6
BITMAP
001FC000
00FFF800
03FFFE00
07C01F80
0F0007C0
1E0001E0
3C0000C0
38000000
70000000
70000000
F0000000
E0000000
E0000000
E0000000
E0000000
E0000000
E0000000
60000000
70000000
70000000
38000000
3C000080
1E0001E0
0F0007C0
07C01F80
03FFFE00
00FFF800
001FC000
00040000
00070000
000F8000
00018000
00238000
003F0000
ENDCHAR

STARTCHAR Ccaron
ENCODING 200
SWIDTH 813 0
DWIDTH 31 0
BBX 27 34 2 0
BITMAP
00F07C00
0038F000
001EE000
000FC000
00070000
00000000
001FC000
00FFF800
03FFFE00
07C01F80
0F0007C0
1E0001E0
3C0000C0
38000000
70000000
70000000
F0000000
E0000000
E0000000
E0000000
E0000000
E0000000
E0000000
60000000
70000000
70000000
38000000
3C000080
1E0001E0
0F0007C0
07C01F80
03FFFE00
00FFF800
000FC000
ENDCHAR

STARTCHAR Eacute
ENCODING 201
SWIDTH 536 0
DWIDTH 20 0
BBX 16 36 3 0
BITMAP
0078
00F0
00E0
01C0
0380
0700
0000
0000
FFFF
FFFF
FFFF
E000
E000
E000
E000
E000
E000
E000
E000
FFFF
FFFF
FFFF
E000
E000
E000
E000
E000
E000
E000
E000
E000
E000
E000
FFFF
FFFF
FFFF
ENDCHAR

STARTCHAR Eogonek
ENCODING 202
SWIDTH 536 0
DWIDTH 20 0
BBX 16 35 3 -7
BITMAP
FFFF
FFFF
FFFF
E000
E000
E000
E000
E000
E000
E000
E000
FFFF
FFFF
FFFF
E000
E000
E000
E000
E000
E000
E000
E000
E000
E000
E000
FFFF
FFFF
FFEF
0018
0018
0030
0030
0038
001F
000F
ENDCHAR

STARTCHAR Edieresis
ENCODING 203
SWIDTH 536 0
DWIDTH 20 0
BBX 16 34 3 0
BITMAP
3C3C
3C3C
3C3C
1C18
0000
0000
FFFF
FFFF
FFFF
E000
E000
E000
E000
E000
E000
E000
E000
FFFF
FFFF
FFFF
E000
E000
E000
E000
E000
E000
E000
E000
E000
E000
E000
FFFF
FFFF
FFFF
ENDCHAR

STARTCHAR Ecaron
ENCODING 204
SWIDTH 536 0
DWIDTH 20 0
BBX 16 35 3 0
BITMAP
781E
1C38
0EF0
07E0
03C0
0000
0000
FFFF
FFFF
FFFF
E000
E000
E000
E000
E000
E000
E000
E000
FFFF
FFFF
FFFF
E000
E000
E000
E000
E000
E000
E000
E000
E000
E000
E000
FFFF
FFFF
FFFF
ENDCHAR

STARTCHAR Iacute
ENCODING 205
SWIDTH 226 0
DWIDTH 9 0
BBX 8 36 2 0
BITMAP
0F
1C
3C
78
70
E0
00
00
70
70
70
70
70
70
70
70
70
70
70
70
70
70
70
70
70
70
70
70
70
70
70
70
70
70
70
70
ENDCHAR

STARTCHAR Icircumflex
ENCODING 206
SWIDTH 226 0
DWIDTH 9 0
BBX 13 35 -2 0
BITMAP
0700
0F80
1DE0
78F0
F078
0000
0000
0700
0700
0700
0700
0700
0700
0700
0700
0700
0700
0700
0700
0700
0700
0700
0700
0700
0700
0700
0700
0700
0700
0700
0700
0700
0700
0700
0700
ENDCHAR

STARTCHAR Dcaron
ENCODING 207
SWIDTH 744 0
DWIDTH 28 0
BBX 23 35 3 0
BITMAP
0783C0
03C780
01EF00
007C00
003800
000000
000000
FFF000
FFFE00
FFFF80
E00FE0
E001F0
E00070
E00078
E0003C
E0001C
E0001C
E0000E
E0000E
E0000E
E0000E
E0000E
E0000E
E0000E
E0000E
E0001C
E0001C
E0001C
E00038
E00078
E000F0
E007E0
FFFFC0
FFFF00
FFF800
ENDCHAR

STARTCHAR Dcroat
ENCODING 208
SWIDTH 790 0
DWIDTH 30 0
BBX 27 28 1 0
BITMAP
1FFF0000
1FFFF000
1FFFF800
1C007E00
1C001F00
1C000780
1C000380
1C0003C0
1C0001C0
1C0001C0
1C0000E0
1C0000E0
FFF800E0
FFF800E0
FFF800E0
1C0000E0
1C0000E0
1C0000E0
1C0001C0
1C0001C0
1C0003C0
1C000380
1C000780
1C001F00
1C007E00
1FFFFC00
1FFFF000
1FFF8000
ENDCHAR

STARTCHAR Nacute
ENCODING 209
SWIDTH 740 0
DWIDTH 28 0
BBX 22 36 3 0
BITMAP
000F00
001E00
001C00
003800
007000
00E000
000000
000000
80001C
C0001C
E0001C
F0001C
F8001C
F8001C
FC001C
EE001C
EF001C
E7801C
E3C01C
E1E01C
E0E01C
E0701C
E0381C
E03C1C
E01E1C
E00F1C
E0079C
E003DC
E001DC
E000FC
E0007C
E0007C
E0003C
E0001C
E0000C
E00004
ENDCHAR

STARTCHAR Ncaron
ENCODING 210
SWIDTH 740 0
DWIDTH 28 0
BBX 22 35 3 0
BITMAP
0F03C0
038700
01DE00
00FC00
007800
000000
000000
80001C
C0001C
E0001C
F0001C
F8001C
F8001C
FC001C
EE001C
EF001C
E7801C
E3C01C
E1E01C
E0E01C
E0701C
E0381C
E03C1C
E01E1C
E00F1C
E0079C
E003DC
E001DC
E000FC
E0007C
E0007C
E0003C
E0001C
E0000C
E00004
ENDCHAR

STARTCHAR Oacute
ENCODING 211
SWIDTH 869 0
DWIDTH 33 0
BBX 29 35 2 0
BITMAP
0001F000
0001C000
00038000
00070000
000E0000
000C0000
00000000
001FC000
00FFF800
03FFFE00
07C01F00
0F000780
1E0003C0
3C0001E0
380000E0
70000070
70000070
70000038
E0000038
E0000038
E0000038
E0000038
E0000038
E0000038
60000038
70000070
70000070
380000E0
3C0001E0
1E0003C0
0F000780
07C01F00
03FFFE00
00FFF800
000FC000
ENDCHAR

STARTCHAR Ocircumflex
ENCODING 212
SWIDTH 869 0
DWIDTH 33 0
BBX 29 34 2 0
BITMAP
00078000
001FC000
003DE000
00787000
00E03800
00000000
001FC000
00FFF800
03FFFE00
07C01F00
0F000780
1E0003C0
3C0001E0
380000E0
70000070
70000070
70000038
E0000038
E0000038
E0000038
E0000038
E0000038
E0000038
60000038
70000070
70000070
380000E0
3C0001E0
1E0003C0
0F000780
07C01F00
03FFFE00
00FFF800
000FC000
ENDCHAR

STARTCHAR Ohungarumlaut
ENCODING 213
SWIDTH 869 0
DWIDTH 33 0
BBX 29 35 2 0
BITMAP
0007BE00
000E3800
001E7000
003CE000
0039C000
0071C000
00000000
001F8000
00FFF800
03FFFE00
07C01F00
0F000780
1E0003C0
3C0001E0
380000E0
70000070
70000070
70000038
E0000038
E0000038
E0000038
E0000038
E0000038
E0000038
60000038
70000070
70000070
380000E0
3C0001E0
1E0003C0
0F000780
07C01F00
03FFFE00
00FFF800
000FC000
ENDCHAR

STARTCHAR Odieresis
ENCODING 214
SWIDTH 869 0
DWIDTH 33 0
BBX 29 34 2 0
BITMAP
00707000
0078F000
0078F000
0078F000
00000000
00000000
001FC000
00FFF800
03FFFE00
07C01F00
0F000780
1E0003C0
3C0001E0
380000E0
70000070
70000070
70000078
E0000038
E0000038
E0000038
E0000038
E0000038
E0000038
70000078
70000070
70000070
380000E0
3C0001E0
1E0003C0
0F000780
07C03F00
01FFFE00
00FFF800
000FC000
ENDCHAR

STARTCHAR multiply
ENCODING 215
SWIDTH 606 0
DWIDTH 23 0
BBX 15 16 4 6
BITMAP
4002
C006
E00E
701C
3838
1C70
0EE0
07C0
0380
07C0
0EE0
1C70
3838
701C
E00E
4004
ENDCHAR

STARTCHAR Rcaron
ENCODING 216
SWIDTH 607 0
DWIDTH 23 0
BBX 17 35 3 0
BITMAP
3C0E00
0E3C00
077800
03F000
01C000
000000
000000
FFE000
FFFC00
FFFE00
E00F00
E00700
E00380
E00380
E00380
E00380
E00380
E00700
E00F00
FFFE00
FFFC00
FFF000
E70000
E38000
E3C000
E1C000
E0E000
E0F000
E07800
E03800
E01C00
E01E00
E00F00
E00700
E00380
ENDCHAR

STARTCHAR Uring
ENCODING 217
SWIDTH 655 0
DWIDTH 25 0
BBX 18 37 3 0
BITMAP
01E000
021000
040800
040800
060800
023000
01E000
000000
000000
E001C0
E001C0
E001C0
E001C0
E001C0
E001C0
E001C0
E001C0
E001C0
E001C0
E001C0
E001C0
E001C0
E001C0
E001C0
E001C0
E001C0
E001C0
E001C0
E001C0
E001C0
600180
700380
700780
3C0F00
1FFE00
0FFC00
01E000
ENDCHAR

STARTCHAR Uacute
ENCODING 218
SWIDTH 655 0
DWIDTH 25 0
BBX 18 36 3 0
BITMAP
003C00
007800
007000
00E000
01C000
038000
000000
000000
E001C0
E001C0
E001C0
E001C0
E001C0
E001C0
E001C0
E001C0
E001C0
E001C0
E001C0
E001C0
E001C0
E001C0
E001C0
E001C0
E001C0
E001C0
E001C0
E001C0
E001C0
600180
700380
780780
3C0F00
1FFE00
0FFC00
01E000
ENDCHAR

STARTCHAR Uhungarumlaut
ENCODING 219
SWIDTH 655 0
DWIDTH 25 0
BBX 18 36 3 0
BITMAP
01E780
03CF00
039E00
071C00
0E3800
1C7000
000000
000000
E001C0
E001C0
E001C0
E001C0
E001C0
E001C0
E001C0
E001C0
E001C0
E001C0
E001C0
E001C0
E001C0
E001C0
E001C0
E001C0
E001C0
E001C0
E001C0
E001C0
E001C0
600180
700380
780780
3C0F00
1FFE00
0FFC00
01E000
ENDCHAR

STARTCHAR Udieresis
ENCODING 220
SWIDTH 655 0
DWIDTH 25 0
BBX 18 34 3 0
BITMAP
0E1C00
1E1E00
1E1E00
0E0C00
000000
000000
E001C0
E001C0
E001C0
E001C0
E001C0
E001C0
E001C0
E001C0
E001C0
E001C0
E001C0
E001C0
E001C0
E001C0
E001C0
E001C0
E001C0
E001C0
E001C0
E001C0
E001C0
600180
700380
700380
3C0F00
1FFE00
0FFC00
01E000
ENDCHAR

STARTCHAR Yacute
ENCODING 221
SWIDTH 592 0
DWIDTH 22 0
BBX 21 36 1 0
BITMAP
001F00
001C00
003800
007000
007000
00E000
000000
000000
F00078
7000F0
3800E0
3C01E0
1C01C0
0E0380
0E0780
070700
078F00
038E00
01DC00
01FC00
00F800
00F800
007000
007000
007000
007000
007000
007000
007000
007000
007000
007000
007000
007000
007000
007000
ENDCHAR

STARTCHAR Tcommaaccent
ENCODING 222
SWIDTH 426 0
DWIDTH 16 0
BBX 15 36 1 -8
BITMAP
FFFE
FFFE
FFFE
0380
0380
0380
0380
0380
0380
0380
0380
0380
0380
0380
0380
0380
0380
0380
0380
0380
0380
0380
0380
0380
0380
0380
0380
0380
0000
0000
0380
0380
0380
0080
0180
0080
ENDCHAR

STARTCHAR germandbls
ENCODING 223
SWIDTH 554 0
DWIDTH 21 0
BBX 16 29 3 0
BITMAP
03C0
1FF0
3FF8
383C
701C
600E
E00E
E00E
E00E
E00C
E01C
E078
E3E0
E3C0
E3F8
E03C
E01E
E00E
E006
E007
E007
E007
E007
E007
E00E
E01E
E43C
E7F8
E7F0
ENDCHAR

STARTCHAR racute
ENCODING 224
SWIDTH 301 0
DWIDTH 11 0
BBX 11 30 2 0
BITMAP
03E0
0380
0700
0E00
0E00
1C00
0000
0000
0000
0180
E7C0
EFC0
EC00
F800
F000
F000
E000
E000
E000
E000
E000
E000
E000
E000
E000
E000
E000
E000
E000
E000
ENDCHAR

STARTCHAR aacute
ENCODING 225
SWIDTH 683 0
DWIDTH 26 0
BBX 21 30 2 0
BITMAP
000F00
001E00
003C00
003800
007000
00E000
000000
000000
000000
00F800
03FE18
0FFF98
1F03D8
3C00E8
380078
700038
700038
600038
E00018
E00018
E00018
E00018
600038
700038
700078
380078
1C01D8
0F87D8
07FF18
01FC18
ENDCHAR

STARTCHAR acircumflex
ENCODING 226
SWIDTH 683 0
DWIDTH 26 0
BBX 21 29 2 0
BITMAP
007000
00F800
01EE00
038F00
0F0780
000000
000000
000000
00F800
03FE18
0FFF98
1F03D8
3C00E8
380078
700038
700038
600038
E00018
E00018
E00018
E00018
600038
700038
700078
380078
1C01D8
0F87D8
07FF18
01FC18
ENDCHAR

STARTCHAR abreve
ENCODING 227
SWIDTH 683 0
DWIDTH 26 0
BBX 21 28 2 0
BITMAP
0E0180
070780
03FF00
00FC00
000000
000000
000000
00F800
03FE18
0FFF98
1F03D8
3C00E8
380078
700038
700038
600038
E00018
E00018
E00018
E00018
600038
700038
700078
380078
1C01D8
0F87D8
07FF18
01FC18
ENDCHAR

STARTCHAR adieresis
ENCODING 228
SWIDTH 683 0
DWIDTH 26 0
BBX 21 28 2 0
BITMAP
078700
078780
078780
078700
000000
000000
000000
007800
03FF18
0FFF98
1F03D8
3C00E8
380078
700038
700038
600018
E00018
E00018
E00018
E00018
600018
700038
700038
380078
1E00E8
0F87D8
07FF18
01FE18
ENDCHAR

STARTCHAR lacute
ENCODING 229
SWIDTH 200 0
DWIDTH 8 0
BBX 8 35 1 0
BITMAP
1F
3C
38
70
E0
00
00
70
70
70
70
70
70
70
70
70
70
70
70
70
70
70
70
70
70
70
70
70
70
70
70
70
70
70
70
ENDCHAR

STARTCHAR cacute
ENCODING 230
SWIDTH 647 0
DWIDTH 25 0
BBX 21 30 2 0
BITMAP
001F00
001C00
003800
007000
00E000
00C000
000000
000000
000000
01FF00
07FFC0
0F83E0
1E00F0
380038
780020
700000
600000
E00000
E00000
E00000
E00000
E00000
600000
700000
780020
380078
1E00F0
0F83E0
07FFC0
01FF00
ENDCHAR

STARTCHAR ccedilla
ENCODING 231
SWIDTH 647 0
DWIDTH 25 0
BBX 21 28 2 -7
BITMAP
01FF00
07FFC0
0F83E0
1E00F0
380078
700020
700000
600000
E00000
E00000
E00000
E00000
E00000
600000
700000
780020
380078
1E00F0
0F87E0
07FF80
01FE00
002000
002000
003800
003C00
000C00
011C00
01F800
ENDCHAR

STARTCHAR ccaron
ENCODING 232
SWIDTH 647 0
DWIDTH 25 0
BBX 21 29 2 0
BITMAP
0783C0
01C700
00EE00
007C00
003800
000000
000000
000000
01FF00
07FFC0
0F83E0
1E00F0
380038
780020
700000
600000
E00000
E00000
E00000
E00000
E00000
600000
700000
780020
380078
1E00F0
0F83E0
07FFC0
01FF00
ENDCHAR

STARTCHAR eacute
ENCODING 233
SWIDTH 650 0
DWIDTH 25 0
BBX 21 30 2 0
BITMAP
000F00
001E00
003C00
003800
007000
00E000
000000
000000
000000
00F800
07FF00
0FFF80
1E03C0
3C00E0
380070
700070
700030
E00038
FFFFF8
FFFFF8
E00000
E00000
600000
700020
700070
3800F0
1C01E0
0F07C0
07FF80
01FE00
ENDCHAR

STARTCHAR eogonek
ENCODING 234
SWIDTH 650 0
DWIDTH 25 0
BBX 20 28 2 -7
BITMAP
01F000
07FE00
1FFF80
3C03C0
3801C0
7000E0
E00070
E00070
C00030
FFFFF0
FFFFF0
C00000
C00000
E00000
E00040
700070
7000E0
3801C0
1E0F80
0FFF00
03FC00
006000
006000
00C000
00C000
00E000
007C00
003C00
ENDCHAR

STARTCHAR edieresis
ENCODING 235
SWIDTH 650 0
DWIDTH 25 0
BBX 21 28 2 0
BITMAP
070700
078F00
078F00
070700
000000
000000
000000
00F800
07FF00
0FFF80
1E03C0
3C01E0
3800F0
700070
700030
E00038
FFFFF8
FFFFF8
E00000
E00000
600000
700020
700070
3800F0
1C01E0
0F07C0
07FF00
01FE00
ENDCHAR

STARTCHAR ecaron
ENCODING 236
SWIDTH 650 0
DWIDTH 25 0
BBX 21 29 2 0
BITMAP
0E0380
078F00
03DE00
01FC00
007000
000000
000000
000000
00F800
07FF00
0FFF80
1E03C0
3C00E0
380070
700070
700030
E00038
FFFFF8
FFFFF8
E00000
E00000
600000
700020
700070
3800F0
1C01E0
0F07C0
07FF80
01FE00
ENDCHAR

STARTCHAR iacute
ENCODING 237
SWIDTH 200 0
DWIDTH 8 0
BBX 8 30 1 0
BITMAP
1F
3C
38
70
E0
00
00
00
00
70
70
70
70
70
70
70
70
70
70
70
70
70
70
70
70
70
70
70
70
70
ENDCHAR

STARTCHAR icircumflex
ENCODING 238
SWIDTH 200 0
DWIDTH 8 0
BBX 13 29 -3 0
BITMAP
0F80
1FC0
3CE0
F078
0000
0000
0000
0000
0700
0700
0700
0700
0700
0700
0700
0700
0700
0700
0700
0700
0700
0700
0700
0700
0700
0700
0700
0700
0700
ENDCHAR

STARTCHAR dcaron
ENCODING 239
SWIDTH 685 0
DWIDTH 26 0
BBX 25 28 2 0
BITMAP
00003B80
00003B80
00003B80
00003A80
00003980
00003980
00003900
00F83B00
07FE3900
0FFFB800
1E03D800
3C00F800
38007800
70007800
60003800
E0003800
E0003800
E0003800
E0003800
E0003800
60003800
70003800
70007800
3800F800
1C01D800
0F87B800
07FF3800
01FC3800
ENDCHAR

STARTCHAR dcroat
ENCODING 240
SWIDTH 685 0
DWIDTH 26 0
BBX 24 28 2 0
BITMAP
000038
000038
000038
0007FF
0007FF
000038
000038
00F838
07FE38
0FFFB8
1E03D8
3C00F8
380078
700078
600038
E00038
E00038
E00038
E00038
E00038
600038
700038
700078
3800F8
1C01D8
0F87B8
07FF38
01FC38
ENDCHAR

STARTCHAR nacute
ENCODING 241
SWIDTH 610 0
DWIDTH 23 0
BBX 18 30 3 0
BITMAP
003C00
007800
007000
00E000
01C000
038000
000000
000000
000000
00F800
E3FC00
E7FF00
EE0F00
EC0380
F80380
F00180
F001C0
E001C0
E001C0
E001C0
E001C0
E001C0
E001C0
E001C0
E001C0
E001C0
E001C0
E001C0
E001C0
E001C0
ENDCHAR

STARTCHAR ncaron
ENCODING 242
SWIDTH 610 0
DWIDTH 23 0
BBX 18 29 3 0
BITMAP
3C0F00
0E1C00
073800
03F000
01E000
000000
000000
000000
00F800
E3FC00
E7FF00
EE0F00
EC0380
F80380
F00180
F001C0
E001C0
E001C0
E001C0
E001C0
E001C0
E001C0
E001C0
E001C0
E001C0
E001C0
E001C0
E001C0
E001C0
ENDCHAR

STARTCHAR oacute
ENCODING 243
SWIDTH 655 0
DWIDTH 25 0
BBX 21 30 2 0
BITMAP
000F00
001C00
003C00
007800
007000
00E000
000000
000000
000000
00F800
07FF00
0FFF80
1E03C0
3C01E0
3800E0
700070
700070
E00038
E00038
E00038
E00038
E00038
600030
700070
700070
3800E0
1C01C0
0F0F80
07FF00
01FC00
ENDCHAR

STARTCHAR ocircumflex
ENCODING 244
SWIDTH 655 0
DWIDTH 25 0
BBX 21 29 2 0
BITMAP
007000
00F800
01DC00
038E00
0F0780
000000
000000
000000
00F800
07FF00
0FFF80
1E03C0
3C01E0
3800E0
700070
700070
E00038
E00038
E00038
E00038
E00038
600030
700070
700070
3800E0
1C01C0
0F0F80
07FF00
01FC00
ENDCHAR

STARTCHAR ohungarumlaut
ENCODING 245
SWIDTH 655 0
DWIDTH 25 0
BBX 21 30 2 0
BITMAP
007BE0
00F380
01E700
01CE00
038C00
071C00
000000
000000
000000
00F800
07FF00
0FFF80
1E03C0
3C01E0
3800E0
700070
700070
E00038
E00038
E00038
E00038
E00038
600030
700070
700070
3800E0
1C01C0
0F0F80
07FF00
01FC00
ENDCHAR

STARTCHAR odieresis
ENCODING 246
SWIDTH 655 0
DWIDTH 25 0
BBX 21 28 2 0
BITMAP
070700
078F00
078F00
070700
000000
000000
000000
00F800
07FF00
0FFF80
1E03C0
3C01E0
3800E0
700070
700070
E00038
E00038
E00038
E00038
E00038
600030
700070
700070
3800E0
1C01C0
0F8F80
07FF00
01FC00
ENDCHAR

STARTCHAR divide
ENCODING 247
SWIDTH 606 0
DWIDTH 23 0
BBX 18 18 3 4
BITMAP
01E000
01E000
01E000
01E000
000000
000000
000000
FFFFC0
FFFFC0
FFFFC0
000000
000000
000000
000000
01E000
01E000
01E000
01E000
ENDCHAR

STARTCHAR rcaron
ENCODING 248
SWIDTH 301 0
DWIDTH 11 0
BBX 13 29 1 0
BITMAP
E078
70F0
39C0
1F80
0F00
0000
0000
0000
00C0
73E0
77E0
7600
7C00
7800
7800
7000
7000
7000
7000
7000
7000
7000
7000
7000
7000
7000
7000
7000
7000
ENDCHAR

STARTCHAR uring
ENCODING 249
SWIDTH 608 0
DWIDTH 23 0
BBX 18 32 2 0
BITMAP
01E000
033000
061800
040800
040800
061800
033000
01E000
000000
000000
000000
E001C0
E001C0
E001C0
E001C0
E001C0
E001C0
E001C0
E001C0
E001C0
E001C0
E001C0
E001C0
E001C0
E001C0
600180
700380
700380
3C0F00
1FFE00
0FFC00
01E000
ENDCHAR

STARTCHAR uacute
ENCODING 250
SWIDTH 608 0
DWIDTH 23 0
BBX 18 30 2 0
BITMAP
003C00
007000
00F000
00E000
03C000
000000
000000
000000
000000
E001C0
E001C0
E001C0
E001C0
E001C0
E001C0
E001C0
E001C0
E001C0
E001C0
E001C0
E001C0
E001C0
E001C0
600180
700380
780780
3C0F00
1FFE00
0FFC00
01E000
ENDCHAR

STARTCHAR uhungarumlaut
ENCODING 251
SWIDTH 608 0
DWIDTH 23 0
BBX 18 31 2 0
BITMAP
01E780
03CF00
038E00
071C00
0E3800
1C7000
000000
000000
000000
000000
E001C0
E001C0
E001C0
E001C0
E001C0
E001C0
E001C0
E001C0
E001C0
E001C0
E001C0
E001C0
E001C0
E001C0
600180
700380
780780
3C0F00
1FFE00
0FFC00
01E000
ENDCHAR

STARTCHAR udieresis
ENCODING 252
SWIDTH 608 0
DWIDTH 23 0
BBX 18 29 2 0
BITMAP
0E1C00
1E1E00
1E1E00
0E1C00
000000
000000
000000
000000
E001C0
E001C0
E001C0
E001C0
E001C0
E001C0
E001C0
E001C0
E001C0
E001C0
E001C0
E001C0
E001C0
E001C0
600180
700380
700380
3C0F00
1FFE00
0FFC00
01E000
ENDCHAR

STARTCHAR yacute
ENCODING 253
SWIDTH 536 0
DWIDTH 20 0
BBX 19 37 1 -7
BITMAP
003E00
007800
00F000
00E000
01C000
000000
000000
000000
000000
E000E0
E000C0
7001C0
700180
300380
380380
180700
1C0700
1C0600
0E0E00
0E0C00
071C00
071C00
033800
03B800
01B000
01F000
01E000
00E000
00E000
01C000
01C000
038000
038000
030000
070000
060000
0E0000
ENDCHAR

STARTCHAR tcommaaccent
ENCODING 254
SWIDTH 339 0
DWIDTH 13 0
BBX 10 37 2 -8
BITMAP
1C00
1C00
1C00
1C00
1C00
1C00
1C00
1C00
FFC0
FFC0
1C00
1C00
1C00
1C00
1C00
1C00
1C00
1C00
1C00
1C00
1C00
1C00
1C00
1C00
1C00
1C00
1C00
1C00
1C00
0000
0000
1C00
1C00
1C00
0400
0C00
0400
ENDCHAR

STARTCHAR dotaccent
ENCODING 255
SWIDTH 222 0
DWIDTH 8 0
BBX 4 4 2 24
BITMAP
F0
F0
F0
70
ENDCHAR
ENDFONT
